<svg width="123" height="118" viewBox="0 0 123 118" fill="none" xmlns="http://www.w3.org/2000/svg">
<path d="M91.7348 0H30.6198C13.7357 0 0 13.7397 0 30.6288V86.5566C0 103.446 13.7357 117.185 30.6198 117.185H91.7348C108.619 117.185 122.355 103.446 122.355 86.5566V30.6288C122.355 13.7397 108.619 0 91.7348 0ZM10.8017 30.6288C10.8017 19.6993 19.6935 10.8049 30.6198 10.8049H91.7348C102.661 10.8049 111.553 19.6993 111.553 30.6288V86.5566C111.553 97.4861 102.661 106.381 91.7348 106.381H30.6198C19.6935 106.381 10.8017 97.4861 10.8017 86.5566V30.6288Z" fill="white"/>
<path d="M61.1774 87.0757C76.8783 87.0757 89.659 74.2981 89.659 58.5857C89.659 42.8733 76.8852 30.0958 61.1774 30.0958C45.4696 30.0958 32.6958 42.8733 32.6958 58.5857C32.6958 74.2981 45.4696 87.0757 61.1774 87.0757ZM61.1774 40.9076C70.9273 40.9076 78.8573 48.8399 78.8573 58.5927C78.8573 68.3454 70.9273 76.2778 61.1774 76.2778C51.4275 76.2778 43.4975 68.3454 43.4975 58.5927C43.4975 48.8399 51.4275 40.9076 61.1774 40.9076Z" fill="white"/>
<path d="M92.2954 34.6988C96.5234 34.6988 99.9694 31.2587 99.9694 27.0225C99.9694 22.7864 96.5303 19.3463 92.2954 19.3463C88.0605 19.3463 84.6215 22.7864 84.6215 27.0225C84.6215 31.2587 88.0605 34.6988 92.2954 34.6988Z" fill="white"/>
</svg>
