<svg width="94" height="109" viewBox="0 0 94 109" fill="none" xmlns="http://www.w3.org/2000/svg">
<path d="M93.7415 26.2058V44.8599C90.4823 44.5415 86.2474 43.8009 81.5628 42.0843C75.4457 39.8417 70.8926 36.7753 67.9102 34.4012V72.104L67.8341 71.9863C67.8825 72.7339 67.9102 73.4953 67.9102 74.2636C67.9102 92.987 52.6799 108.229 33.9551 108.229C15.2303 108.229 0 92.987 0 74.2636C0 55.5402 15.2303 40.2916 33.9551 40.2916C35.7888 40.2916 37.588 40.4369 39.3456 40.7207V59.1049C37.6572 58.5027 35.8442 58.1774 33.9551 58.1774C25.0909 58.1774 17.8737 65.3899 17.8737 74.2636C17.8737 83.1373 25.0909 90.3498 33.9551 90.3498C42.8193 90.3498 50.0365 83.1304 50.0365 74.2636C50.0365 73.9314 50.0296 73.5991 50.0089 73.2669V0H68.6437C68.7129 1.57816 68.7752 3.1702 68.8444 4.74836C68.9689 7.85623 70.076 10.8395 72.0066 13.2829C74.2694 16.1554 77.6116 19.4917 82.3032 22.1566C86.6972 24.6415 90.8214 25.7143 93.7415 26.2196V26.2058Z" fill="white"/>
</svg>
